<svg width="81" height="82" viewBox="0 0 81 82" fill="none" xmlns="http://www.w3.org/2000/svg">
<path d="M40.5 0.3125C18.1319 0.3125 0 18.5284 0 41C0 63.4716 18.1319 81.6875 40.5 81.6875C62.8681 81.6875 81 63.4716 81 41C81 18.5284 62.8681 0.3125 40.5 0.3125ZM66.629 35.668V36.8049C66.629 37.768 66.0869 38.649 65.2295 39.0788L62.7162 40.3421C62.3171 40.5428 61.8722 40.6338 61.4268 40.6058C60.9814 40.5779 60.5512 40.432 60.1801 40.183L57.2062 38.1912C56.8854 37.9766 56.5201 37.8383 56.1381 37.7868C55.7561 37.7354 55.3674 37.7721 55.0016 37.8943L54.5688 38.0387C52.9848 38.5686 52.3381 40.4652 53.264 41.8613L55.4262 45.1196C55.8949 45.8267 56.6853 46.2516 57.5312 46.2516H58.872C60.2699 46.2516 61.4032 47.3902 61.4032 48.7946V50.6551C61.4032 51.2047 61.2252 51.7412 60.897 52.1809L57.8366 56.2791C57.6047 56.5909 57.4463 56.9518 57.3745 57.3341L56.6722 61.0796C56.571 61.6194 56.2983 62.1116 55.8949 62.484C54.3473 63.9078 52.9765 65.5141 51.8122 67.268L49.6844 70.4755C49.2705 71.0991 48.7098 71.6105 48.052 71.9643C47.3942 72.318 46.6597 72.5032 45.9136 72.5033C44.1973 72.5033 42.6279 71.5287 41.8603 69.9866C40.9656 68.1889 40.4999 66.2066 40.5 64.1968V59.293C40.5 57.8886 39.3667 56.75 37.9688 56.75H33.7424C31.3761 56.75 29.1077 55.805 27.4339 54.125C25.7612 52.4438 24.8214 50.1642 24.8209 47.7873V45.4805C24.8209 42.6603 26.1437 40.0041 28.3892 38.311L32.8932 34.9166C34.4376 33.753 36.3159 33.1239 38.2464 33.1234H38.3917C39.7766 33.1234 41.1434 33.4466 42.3813 34.07L44.7852 35.2775C45.3861 35.5794 46.0802 35.6286 46.7171 35.4153L54.4431 32.828C55.4768 32.4819 56.1742 31.5106 56.1742 30.4163C56.1742 29.012 55.0408 27.8734 53.6429 27.8734H51.9951C51.324 27.8734 50.6805 27.6059 50.2053 27.1285L49.0752 25.9932C48.8402 25.757 48.5612 25.5697 48.2541 25.4419C47.947 25.3141 47.6178 25.2483 47.2854 25.2484H32.5796C31.1817 25.2484 30.0484 24.1098 30.0484 22.7054V21.9835C30.0484 20.817 30.8388 19.7998 31.9656 19.516L34.3254 18.9237C34.9361 18.7695 35.4685 18.3938 35.818 17.8672L37.1375 15.8804C37.6062 15.1733 38.3966 14.7484 39.2425 14.7484H43.1962C44.5941 14.7484 45.7274 13.6098 45.7274 12.2054V8.64523C58.6646 10.7518 69.0558 20.4955 72.17 33.125H69.1603C67.7624 33.125 66.629 34.2636 66.629 35.668Z" fill="#C162E5"/>
</svg>
